<svg width="80" height="80" viewBox="0 0 80 80" fill="none" xmlns="http://www.w3.org/2000/svg">
<circle cx="40" cy="40" r="40" fill="#212121"/>
<path d="M19.1521 23.8863C19.1521 21.2719 21.2719 19.1521 23.8864 19.1521H57.026C59.6405 19.1521 61.7603 21.2719 61.7603 23.8863V57.026C61.7603 59.6405 59.6405 61.7602 57.026 61.7602H23.8864C21.2719 61.7602 19.1521 59.6405 19.1521 57.026V23.8863Z" fill="#FF41C8"/>
<path d="M22.7028 22.7029V58.2097H58.2096V22.7029H22.7028ZM34.6485 37.7282L36.9138 31.9488H40.8089L36.8558 40.2941L40.9012 48.7779H36.96L34.6485 42.8944L32.3488 48.7779H28.4076L32.453 40.2941L28.4881 31.9488H32.3832L34.6485 37.7282ZM41.7214 42.144C41.7214 40.0941 42.0682 38.5649 42.7618 37.5554C43.4553 36.5458 44.4637 36.0416 45.7905 36.0416C46.7527 36.0416 47.5552 36.4582 48.1943 37.2902V31.0257H51.4882V48.7791H48.5174L48.3671 47.5079C47.6972 48.5104 46.8332 49.011 45.7775 49.011C44.4685 49.011 43.4684 48.5104 42.7784 47.5079C42.0883 46.5054 41.7356 45.0343 41.7202 43.0932L41.7214 42.144ZM45.0046 42.9642C45.0046 44.1975 45.1348 45.0591 45.3976 45.5479C45.6603 46.0368 46.103 46.2817 46.7267 46.2817C47.3741 46.2817 47.8629 45.993 48.1943 45.4154V39.7059C47.8712 39.0893 47.3848 38.7815 46.7385 38.7815C46.1373 38.7815 45.6982 39.0242 45.4212 39.5094C45.1443 39.9947 45.0046 40.8587 45.0046 42.099V42.9642Z" fill="#16020B"/>
</svg>
