<svg width="40" height="40" viewBox="0 0 40 40" fill="none" xmlns="http://www.w3.org/2000/svg">
<path d="M7.20001 3.2C4.99201 3.2 3.20001 4.992 3.20001 7.2V32.8C3.20001 35.008 4.99201 36.8 7.20001 36.8H32.8C35.008 36.8 36.8 35.008 36.8 32.8V7.2C36.8 4.992 35.008 3.2 32.8 3.2H7.20001ZM9.60001 14.4H14.9844C15.5684 14.4 18.7281 14.3602 18.7281 17.2562C18.7281 18.7922 17.6798 19.3117 17.2078 19.5437C17.9118 19.7677 19.2 20.416 19.2 22.4C19.2 25.464 15.6876 25.6 15.2156 25.6H9.60001V14.4ZM23.2 14.4H28.8V16H23.2V14.4ZM12 16.3437V18.9687H14.5766C14.9286 18.9687 16.0953 18.776 16.0953 17.6C16.0953 16.424 14.5758 16.3437 14.3438 16.3437H12ZM26.1844 16.8C29.3044 16.8 30.1517 19.2318 30.2797 19.8078C30.3997 20.3918 30.4 20.904 30.4 21.6H24.0797C24.0797 22.296 24.4485 23.8641 26.3125 23.8641C26.8085 23.8641 27.1756 23.7445 27.5516 23.5125C27.9196 23.2805 28.0488 23.0554 28.1688 22.8234H30.2719C29.9039 23.7434 29.4081 24.4407 28.6641 24.9047C27.9201 25.3687 27.0561 25.6 26.0641 25.6C25.4401 25.6 24.824 25.4804 24.2 25.2484C23.704 25.0164 23.2086 24.6721 22.8406 24.3281C22.4726 23.9761 22.2246 23.5119 21.9766 22.9359C21.7286 22.4719 21.6 21.776 21.6 21.2C21.6 20.624 21.8324 16.8 26.1844 16.8ZM26.1844 18.4234C24.3764 18.4234 24.0797 20.1599 24.0797 20.2719H28.0484C27.9204 19.6959 27.4004 18.4234 26.1844 18.4234ZM12 20.5687V23.6562H14.6813C14.9125 23.6562 16.5438 23.5847 16.5438 22.1687C16.5438 20.7607 15.2621 20.5687 14.6813 20.5687H12Z" fill="white"/>
</svg>
