<svg width="80" height="80" viewBox="0 0 80 80" fill="none" xmlns="http://www.w3.org/2000/svg">
<circle cx="40" cy="40" r="40" fill="#212121"/>
<path d="M32.2153 65.2181C33.0232 64.8704 33.5891 64.0671 33.5891 63.1319V56.9961C33.5891 56.7722 33.6072 56.5393 33.6357 56.303C33.6197 56.3075 33.605 56.3109 33.5891 56.3143C33.5891 56.3143 30.1803 56.3143 29.4985 56.3143C27.7941 56.3143 26.317 55.6326 25.6352 54.269C24.8398 52.7919 24.4989 50.2921 22.4536 48.9286C22.1127 48.7013 22.34 48.3604 23.0218 48.3604C23.7035 48.4741 25.1807 49.3831 26.0897 50.633C27.1123 51.8829 28.135 52.9055 29.953 52.9055C32.7789 52.9055 34.2936 52.7635 35.2048 52.2749C36.2661 50.6966 37.7353 49.4967 39.2704 49.4967V49.4683C32.83 49.2615 28.7156 47.1208 26.7999 43.8154C22.6354 43.8631 19.0096 44.2756 16.9405 44.6187C16.8746 44.2472 16.8177 43.8733 16.7689 43.4972C18.8108 43.1609 22.2718 42.7621 26.2511 42.6859C26.1238 42.3723 26.0135 42.0508 25.9204 41.7212C21.9309 41.519 18.4881 41.6769 16.6178 41.8315C16.595 41.4542 16.5644 41.0781 16.5598 40.6963C18.4335 40.5429 21.7832 40.3895 25.6704 40.5702C25.5806 40.0021 25.5227 39.4214 25.5227 38.8169C25.5227 36.8853 26.2045 34.84 27.4544 33.1356C26.8862 31.204 26.0908 27.1134 27.6816 25.6363C30.7495 25.6363 32.9084 27.1134 33.9311 28.0224C35.8616 27.2259 38.0205 26.7714 40.4067 26.7714C42.7928 26.7714 44.9517 27.2259 46.7698 28.0213C47.7924 27.1123 49.9513 25.6351 53.0192 25.6351C54.7236 27.2259 53.8146 31.3164 53.2465 33.1345C54.4964 34.8389 55.1781 36.7705 55.0645 38.8158C55.0645 39.3658 55.0134 39.8964 54.9395 40.4168C58.9153 40.2214 62.3559 40.3782 64.2614 40.5327C64.2592 40.9156 64.2239 41.2895 64.2035 41.6678C62.3048 41.511 58.7778 41.3497 54.7054 41.5667C54.6043 41.9485 54.4816 42.3201 54.3362 42.6803C58.3654 42.7325 61.9094 43.1223 64.049 43.4631C64.0001 43.8404 63.9433 44.2142 63.8774 44.5846C61.7048 44.2369 58.0018 43.8302 53.7885 43.8097C51.8966 47.0799 47.8572 49.2126 41.5429 49.4615V49.4967C44.4972 49.4967 47.2243 53.9282 47.2243 56.9961V63.1319C47.2243 64.0671 47.7901 64.8704 48.598 65.2181C59.0074 61.7729 66.5408 51.9556 66.5408 40.4066C66.5408 25.9965 54.8179 14.2725 40.4067 14.2725C25.9954 14.2725 14.2725 25.9965 14.2725 40.4066C14.2725 51.9556 21.806 61.7729 32.2153 65.2181Z" fill="white"/>
</svg>
