<svg width="80" height="80" viewBox="0 0 80 80" fill="none" xmlns="http://www.w3.org/2000/svg">
<circle cx="40" cy="40" r="40" fill="#212121"/>
<path d="M19.1521 23.8863C19.1521 21.2719 21.2719 19.1521 23.8864 19.1521H57.026C59.6405 19.1521 61.7603 21.2719 61.7603 23.8863V57.026C61.7603 59.6405 59.6405 61.7602 57.026 61.7602H23.8864C21.2719 61.7602 19.1521 59.6405 19.1521 57.026V23.8863Z" fill="#FF5722"/>
<path d="M22.7028 22.7029V58.2097H58.2096V22.7029H22.7028ZM40.0905 48.7412L39.1886 45.297H34.5538L33.6531 48.7412H30.0586L35.3172 31.9122H38.4264L43.7205 48.7412H40.0905ZM48.5636 48.7412H45.2816V36.2357H48.5636V48.7412ZM48.2109 34.2473C47.8901 34.5787 47.4581 34.7444 46.9102 34.7444C46.3622 34.7444 45.9302 34.5787 45.6094 34.2473C45.2887 33.9159 45.1301 33.4993 45.1301 32.9987C45.1301 32.4897 45.2922 32.0743 45.6153 31.75C45.9385 31.4257 46.3716 31.2647 46.9102 31.2647C47.4487 31.2647 47.8807 31.4269 48.205 31.75C48.5293 32.0731 48.6902 32.4897 48.6902 32.9987C48.6902 33.4993 48.5304 33.9159 48.2109 34.2473Z" fill="#1C0802"/>
<path d="M35.2947 42.4646H38.4382L36.8665 36.4663L35.2947 42.4646Z" fill="#1C0802"/>
</svg>
