<svg width="40" height="40" viewBox="0 0 40 40" fill="none" xmlns="http://www.w3.org/2000/svg">
<path d="M12.8 2.39999C7.06598 2.39999 2.39999 7.06598 2.39999 12.8V27.2C2.39999 32.934 7.06598 37.6 12.8 37.6H27.2C32.934 37.6 37.6 32.934 37.6 27.2V12.8C37.6 7.06598 32.934 2.39999 27.2 2.39999H12.8ZM12.8 3.99999H27.2C32.0692 3.99999 36 7.93081 36 12.8V27.2C36 32.0692 32.0692 36 27.2 36H12.8C7.93081 36 3.99999 32.0692 3.99999 27.2V12.8C3.99999 7.93081 7.93081 3.99999 12.8 3.99999ZM29.6 8.79999C29.1756 8.79999 28.7687 8.96857 28.4686 9.26862C28.1686 9.56868 28 9.97565 28 10.4C28 10.8243 28.1686 11.2313 28.4686 11.5314C28.7687 11.8314 29.1756 12 29.6 12C30.0243 12 30.4313 11.8314 30.7314 11.5314C31.0314 11.2313 31.2 10.8243 31.2 10.4C31.2 9.97565 31.0314 9.56868 30.7314 9.26862C30.4313 8.96857 30.0243 8.79999 29.6 8.79999ZM20 11.2C15.1494 11.2 11.2 15.1494 11.2 20C11.2 24.8506 15.1494 28.8 20 28.8C24.8506 28.8 28.8 24.8506 28.8 20C28.8 15.1494 24.8506 11.2 20 11.2ZM20 12.8C23.9859 12.8 27.2 16.0141 27.2 20C27.2 23.9859 23.9859 27.2 20 27.2C16.0141 27.2 12.8 23.9859 12.8 20C12.8 16.0141 16.0141 12.8 20 12.8Z" fill="white"/>
</svg>
