<svg width="80" height="80" viewBox="0 0 80 80" fill="none" xmlns="http://www.w3.org/2000/svg">
<circle cx="40" cy="40" r="40" fill="#212121"/>
<path d="M21.5193 55.8423L39.5496 22.0352C39.9295 21.3227 40.9568 21.3357 41.3178 22.0588L47.5576 34.5383L21.5193 55.8423Z" fill="#FF8F00"/>
<path d="M21.5193 55.8331L28.0833 15.3565C28.2549 14.2973 29.6775 14.0676 30.1746 15.0192L42.8233 39.2633L21.5193 55.8331Z" fill="#FFA000"/>
<path d="M21.5287 55.8258L21.7654 55.64L42.512 38.6666L36.6605 27.4512L21.5287 55.8258Z" fill="#FF6F00"/>
<path d="M21.5193 55.8425L53.08 25.4097C53.7417 24.7717 54.8459 25.1481 54.9808 26.0571L59.3932 55.8425L41.6398 66.1904C40.919 66.5952 40.0396 66.5952 39.3188 66.1904L21.5193 55.8425Z" fill="#FFC400"/>
</svg>
