<svg width="80" height="80" viewBox="0 0 80 80" fill="none" xmlns="http://www.w3.org/2000/svg">
<circle cx="40" cy="40" r="40" fill="#212121"/>
<path d="M40.0419 41.5191C38.8608 39.6148 38.0039 38.0359 36.8167 35.0628C34.8094 30.041 49.0252 25.5032 43.2612 16.7839C45.7597 22.8071 34.2934 26.5305 33.2282 31.5465C32.2541 36.16 40.036 41.5191 40.0419 41.5191Z" fill="#F44336"/>
<path d="M40.3118 32.4909C40.0846 35.4687 42.95 37.0558 43.0328 39.2312C43.0991 41.0018 41.3202 42.4777 41.3202 42.4777C41.3202 42.4777 44.549 41.8433 45.5562 39.1425C46.6746 36.1433 43.3855 34.0898 43.724 31.6884C44.04 29.3947 50.8621 25.1279 50.8621 25.1279C50.8621 25.1279 40.8243 25.7931 40.3118 32.4909Z" fill="#F44336"/>
<path d="M50.0241 41.705C52.1001 41.2387 53.8506 42.5607 53.8506 44.0839C53.8506 47.5174 49.0915 50.7628 49.0915 50.7628C49.0915 50.7628 56.4591 49.8845 56.4591 44.2473C56.4591 40.519 52.841 39.5876 50.0241 41.705ZM46.5267 44.4745C46.5267 44.4745 48.824 42.8376 49.4359 42.2234C43.7986 43.4199 30.9274 43.5809 30.9274 42.5417C30.9274 41.5842 35.0781 40.6031 35.0781 40.6031C35.0781 40.6031 25.8783 40.4705 25.8783 43.1844C25.8783 46.0131 37.921 46.2155 46.5267 44.4745Z" fill="#1565C0"/>
<path d="M45.1135 47.05C39.7768 48.8242 29.9474 48.2573 32.8589 45.8748C31.441 45.8748 29.339 47.0145 29.339 48.1105C29.339 50.3084 39.9698 52.0056 47.8381 48.7875L45.1135 47.05Z" fill="#1565C0"/>
<path d="M34.1668 50.7993C32.2305 50.7993 30.9771 52.0468 30.9771 52.9558C30.9771 55.7857 42.5286 56.0709 47.1054 53.1984L44.1963 51.2668C40.777 52.7699 32.1879 52.9771 34.1668 50.7993Z" fill="#1565C0"/>
<path d="M54.9915 55.4071C54.9915 54.2992 53.7428 53.7773 53.2955 53.5276C55.9324 59.8868 26.882 59.3933 26.882 55.639C26.882 54.7857 29.0207 53.9501 30.9972 54.3454L29.3165 53.3524C25.3777 52.7346 22.7028 54.4661 22.7028 55.8627C22.7028 62.3759 54.9915 62.0622 54.9915 55.4071Z" fill="#1565C0"/>
<path d="M58.2096 57.741C53.3026 62.5876 40.8598 64.3535 28.3472 61.3591C40.8598 66.6887 58.1504 63.6872 58.2096 57.741Z" fill="#1565C0"/>
</svg>
