<svg width="80" height="80" viewBox="0 0 80 80" fill="none" xmlns="http://www.w3.org/2000/svg">
<circle cx="40" cy="40" r="40" fill="#212121"/>
<path d="M54.6589 19.1521H26.2535C22.3312 19.1521 19.1521 22.3311 19.1521 26.2535V54.6589C19.1521 58.5812 22.3312 61.7602 26.2535 61.7602H54.6589C58.5812 61.7602 61.7603 58.5812 61.7603 54.6589V26.2535C61.7603 22.3311 58.5812 19.1521 54.6589 19.1521Z" fill="#50E6FF"/>
<path d="M54.6589 59.3932H26.2535C23.639 59.3932 21.5193 57.2734 21.5193 54.6589V26.2535C21.5193 23.639 23.639 21.5193 26.2535 21.5193H54.6589C57.2734 21.5193 59.3932 23.639 59.3932 26.2535V54.6589C59.3932 57.2734 57.2734 59.3932 54.6589 59.3932Z" fill="#092347"/>
<path d="M29.2207 30.2444C29.2207 30.1189 29.3118 30.0136 29.4361 29.9994C29.9095 29.9473 31.2304 29.8396 34.0484 29.8396C38.295 29.8396 41.2693 31.5238 41.2693 36.1326C41.2693 40.2892 38.4394 42.7286 33.8732 42.7286C33.6069 42.7286 33.3406 42.7286 32.434 42.7286V49.6903C32.434 49.8062 32.3394 49.9009 32.2234 49.9009H29.4325C29.3165 49.9009 29.2219 49.8062 29.2219 49.6903V30.2444H29.2207ZM32.434 39.8016C32.434 39.8016 33.8389 39.8111 34.1561 39.8111C36.7635 39.8111 37.9494 38.2654 37.9494 36.1941C37.9494 34.2543 36.7966 32.7417 34.3869 32.7417C33.3939 32.7417 32.4352 32.7985 32.4352 32.7985L32.434 39.8016Z" fill="white"/>
<path d="M43.008 46.3384C43.008 46.2259 43.1299 46.1561 43.2234 46.2176C43.8199 46.6165 45.0307 47.2994 46.9054 47.2994C48.1292 47.2994 48.9033 46.7727 48.9033 45.9135C48.9033 44.9619 47.5954 44.2719 46.516 43.686C45.4425 43.1037 43.0316 42.1687 43.0316 39.1577C43.0316 36.4888 45.1644 34.8792 48.0689 34.8792C49.1814 34.8792 50.4088 35.0519 51.2373 35.3538C51.3734 35.4035 51.4562 35.536 51.4562 35.6816V38.3931C51.4562 38.5044 51.339 38.5766 51.2455 38.515C50.726 38.1754 49.5803 37.6558 48.0038 37.6558C46.6912 37.6558 46.1136 38.2949 46.1136 38.9459C46.1136 40.0868 47.6333 40.5638 48.9968 41.3639C51.1236 42.5474 52.1095 43.7038 52.1095 45.5158C52.1095 48.4794 49.8998 50.1435 46.9066 50.1435C45.3609 50.1435 43.9075 49.8062 43.1642 49.3541C43.0612 49.2913 43.0091 49.1777 43.0091 49.057L43.008 46.3384Z" fill="white"/>
</svg>
