<svg width="1440" height="758" viewBox="0 0 1440 758" fill="none" xmlns="http://www.w3.org/2000/svg">
<g opacity="0.7">
<g opacity="0.02">
<path d="M51.6 464.85C48 460.55 43.75 457.2 38.85 454.8C34.05 452.3 29.2 451.05 24.3 451.05C18.4 451.05 13 452.5 8.09999 455.4C3.19999 458.3 -0.650009 462.25 -3.45001 467.25C-6.25001 472.25 -7.65001 477.8 -7.65001 483.9C-7.65001 490 -6.25001 495.6 -3.45001 500.7C-0.650009 505.7 3.19999 509.7 8.09999 512.7C13 515.6 18.4 517.05 24.3 517.05C29 517.05 33.75 515.95 38.55 513.75C43.45 511.45 47.8 508.4 51.6 504.6L65.55 519.75C59.95 525.55 53.35 530.15 45.75 533.55C38.25 536.95 30.7 538.65 23.1 538.65C12.8 538.65 3.44999 536.3 -4.95001 531.6C-13.35 526.8 -19.95 520.25 -24.75 511.95C-29.55 503.65 -31.95 494.4 -31.95 484.2C-31.95 474.1 -29.5 464.95 -24.6 456.75C-19.7 448.55 -13 442.1 -4.50001 437.4C4.09999 432.7 13.6 430.35 24 430.35C31.6 430.35 39.1 431.95 46.5 435.15C53.9 438.25 60.2 442.5 65.4 447.9L51.6 464.85Z" fill="white"/>
<path d="M189.2 537L172.55 507H170.3H148.4V537H124.7V432H170.3C184 432 194.6 435.2 202.1 441.6C209.6 447.9 213.35 456.85 213.35 468.45C213.35 476.55 211.65 483.5 208.25 489.3C204.95 495 200.1 499.35 193.7 502.35L216.05 537H189.2ZM148.4 487.2H170.3C176.9 487.2 181.95 485.7 185.45 482.7C189.05 479.6 190.85 475.1 190.85 469.2C190.85 463.4 189.05 459.05 185.45 456.15C181.95 453.15 176.9 451.65 170.3 451.65H148.4V487.2Z" fill="white"/>
<path d="M278.245 432H358.195V451.65H301.945V474.45H352.495V494.1H301.945V517.35H359.845V537H278.245V432Z" fill="white"/>
<path d="M500.991 537L492.741 516.6H444.141L435.891 537H411.441L457.041 432H481.491L526.341 537H500.991ZM451.941 497.55H485.091L468.591 456.75L451.941 497.55Z" fill="white"/>
<path d="M560.923 432H648.673V452.1H616.573V537H592.873V452.1H560.923V432Z" fill="white"/>
<path d="M706.361 432H730.061V537H706.361V432Z" fill="white"/>
<path d="M786.832 432H812.332L840.982 511.2L869.782 432H894.232L852.532 537H828.082L786.832 432Z" fill="white"/>
<path d="M950.755 432H1030.71V451.65H974.455V474.45H1025.01V494.1H974.455V517.35H1032.36V537H950.755V432Z" fill="white"/>
<path d="M1252.16 464.85C1248.56 460.55 1244.31 457.2 1239.41 454.8C1234.61 452.3 1229.76 451.05 1224.86 451.05C1218.96 451.05 1213.56 452.5 1208.66 455.4C1203.76 458.3 1199.91 462.25 1197.11 467.25C1194.31 472.25 1192.91 477.8 1192.91 483.9C1192.91 490 1194.31 495.6 1197.11 500.7C1199.91 505.7 1203.76 509.7 1208.66 512.7C1213.56 515.6 1218.96 517.05 1224.86 517.05C1229.56 517.05 1234.31 515.95 1239.11 513.75C1244.01 511.45 1248.36 508.4 1252.16 504.6L1266.11 519.75C1260.51 525.55 1253.91 530.15 1246.31 533.55C1238.81 536.95 1231.26 538.65 1223.66 538.65C1213.36 538.65 1204.01 536.3 1195.61 531.6C1187.21 526.8 1180.61 520.25 1175.81 511.95C1171.01 503.65 1168.61 494.4 1168.61 484.2C1168.61 474.1 1171.06 464.95 1175.96 456.75C1180.86 448.55 1187.56 442.1 1196.06 437.4C1204.66 432.7 1214.16 430.35 1224.56 430.35C1232.16 430.35 1239.66 431.95 1247.06 435.15C1254.46 438.25 1260.76 442.5 1265.96 447.9L1252.16 464.85Z" fill="white"/>
<path d="M1389.76 537L1373.11 507H1370.86H1348.96V537H1325.26V432H1370.86C1384.56 432 1395.16 435.2 1402.66 441.6C1410.16 447.9 1413.91 456.85 1413.91 468.45C1413.91 476.55 1412.21 483.5 1408.81 489.3C1405.51 495 1400.66 499.35 1394.26 502.35L1416.61 537H1389.76ZM1348.96 487.2H1370.86C1377.46 487.2 1382.51 485.7 1386.01 482.7C1389.61 479.6 1391.41 475.1 1391.41 469.2C1391.41 463.4 1389.61 459.05 1386.01 456.15C1382.51 453.15 1377.46 451.65 1370.86 451.65H1348.96V487.2Z" fill="white"/>
</g>
<g opacity="0.02">
<path d="M84.1 1.99999C94.8 1.99999 104.35 4.24999 112.75 8.74999C121.15 13.15 127.65 19.35 132.25 27.35C136.95 35.25 139.3 44.3 139.3 54.5C139.3 64.7 136.9 73.8 132.1 81.8C127.4 89.7 120.8 95.9 112.3 100.4C103.8 104.8 94.1 107 83.2 107H39.55V1.99999H84.1ZM84.7 87.05C90.5 87.05 95.7 85.7 100.3 83C105 80.2 108.65 76.35 111.25 71.45C113.85 66.55 115.15 60.95 115.15 54.65C115.15 48.35 113.75 42.7 110.95 37.7C108.25 32.7 104.5 28.85 99.7 26.15C95 23.35 89.65 21.95 83.65 21.95H63.25V87.05H84.7Z" fill="white"/>
<path d="M199.833 1.99999H279.783V21.65H223.533V44.45H274.083V64.1H223.533V87.35H281.433V107H199.833V1.99999Z" fill="white"/>
<path d="M414.179 31.25C408.779 27.95 403.029 25.35 396.929 23.45C390.929 21.45 385.779 20.45 381.479 20.45C377.379 20.45 374.129 21.2 371.729 22.7C369.329 24.2 368.129 26.4 368.129 29.3C368.129 33 369.829 35.85 373.229 37.85C376.729 39.75 382.079 41.75 389.279 43.85C396.479 45.95 402.379 48.05 406.979 50.15C411.679 52.25 415.679 55.4 418.979 59.6C422.279 63.8 423.929 69.35 423.929 76.25C423.929 82.95 422.129 88.75 418.529 93.65C415.029 98.45 410.179 102.1 403.979 104.6C397.779 107.1 390.729 108.35 382.829 108.35C374.329 108.35 365.979 106.85 357.779 103.85C349.579 100.85 342.479 96.75 336.479 91.55L345.929 72.2C351.229 77 357.329 80.85 364.229 83.75C371.129 86.65 377.429 88.1 383.129 88.1C388.029 88.1 391.829 87.2 394.529 85.4C397.329 83.6 398.729 81 398.729 77.6C398.729 74.9 397.779 72.7 395.879 71C394.079 69.2 391.729 67.75 388.829 66.65C386.029 65.55 382.129 64.3 377.129 62.9C369.929 60.9 364.029 58.9 359.429 56.9C354.929 54.9 351.029 51.85 347.729 47.75C344.429 43.65 342.779 38.2 342.779 31.4C342.779 25.1 344.479 19.6 347.879 14.9C351.279 10.1 356.029 6.44999 362.129 3.94999C368.229 1.34999 375.329 0.0499878 383.429 0.0499878C390.629 0.0499878 397.729 1.09999 404.729 3.19999C411.729 5.3 417.929 8.09999 423.329 11.6L414.179 31.25Z" fill="white"/>
<path d="M485.536 1.99999H509.236V107H485.536V1.99999Z" fill="white"/>
<path d="M648.058 54.05H668.608V94.85C663.008 98.95 656.308 102.3 648.508 104.9C640.708 107.4 633.208 108.65 626.008 108.65C615.508 108.65 606.008 106.3 597.508 101.6C589.008 96.8 582.308 90.3 577.408 82.1C572.508 73.8 570.058 64.55 570.058 54.35C570.058 44.25 572.558 35.1 577.558 26.9C582.558 18.6 589.408 12.1 598.108 7.39999C606.908 2.69999 616.658 0.349991 627.358 0.349991C635.158 0.349991 642.758 1.74999 650.158 4.54999C657.658 7.34999 664.108 11.15 669.508 15.95L656.158 32.9C652.258 29.2 647.758 26.3 642.658 24.2C637.558 22.1 632.458 21.05 627.358 21.05C621.258 21.05 615.658 22.55 610.558 25.55C605.558 28.45 601.608 32.45 598.708 37.55C595.808 42.55 594.358 48.15 594.358 54.35C594.358 60.55 595.808 66.25 598.708 71.45C601.708 76.55 605.708 80.6 610.708 83.6C615.808 86.5 621.408 87.95 627.508 87.95C630.608 87.95 633.958 87.45 637.558 86.45C641.158 85.35 644.658 83.9 648.058 82.1V54.05Z" fill="white"/>
<path d="M806.925 1.99999H829.425V107H807.825L756.975 39.5V107H734.325V1.99999H755.925L806.925 69.8V1.99999Z" fill="white"/>
<path d="M999.595 63.65C999.595 71.15 1001.69 77.1 1005.89 81.5C1010.19 85.8 1015.89 87.95 1022.99 87.95C1029.89 87.95 1035.39 85.8 1039.49 81.5C1043.59 77.2 1045.64 71.25 1045.64 63.65V1.99999H1069.34V63.65C1069.34 72.85 1067.44 80.85 1063.64 87.65C1059.94 94.35 1054.59 99.55 1047.59 103.25C1040.59 106.85 1032.34 108.65 1022.84 108.65C1013.34 108.65 1005.04 106.85 997.945 103.25C990.845 99.55 985.395 94.35 981.595 87.65C977.795 80.85 975.895 72.85 975.895 63.65V1.99999H999.595V63.65Z" fill="white"/>
<path d="M1135.63 1.99999H1159.33V107H1135.63V1.99999Z" fill="white"/>
<path d="M1329.71 63.65C1329.71 71.15 1331.81 77.1 1336.01 81.5C1340.31 85.8 1346.01 87.95 1353.11 87.95C1360.01 87.95 1365.51 85.8 1369.61 81.5C1373.71 77.2 1375.76 71.25 1375.76 63.65V1.99999H1399.46V63.65C1399.46 72.85 1397.56 80.85 1393.76 87.65C1390.06 94.35 1384.71 99.55 1377.71 103.25C1370.71 106.85 1362.46 108.65 1352.96 108.65C1343.46 108.65 1335.16 106.85 1328.06 103.25C1320.96 99.55 1315.51 94.35 1311.71 87.65C1307.91 80.85 1306.01 72.85 1306.01 63.65V1.99999H1329.71V63.65Z" fill="white"/>
<path d="M1457.95 1.99999H1485.55L1507.45 34.1L1529.5 1.99999H1557.55L1522.6 52.25L1560.55 107H1532.2L1507.45 72.05L1483.15 107H1455.4L1493.05 53.3L1457.95 1.99999Z" fill="white"/>
</g>
<g opacity="0.02">
<path d="M73.2 217H160.95V237.1H128.85V322H105.15V237.1H73.2V217Z" fill="white"/>
<path d="M218.638 217H298.588V236.65H242.338V259.45H292.888V279.1H242.338V302.35H300.238V322H218.638V217Z" fill="white"/>
<path d="M439.883 249.85C436.283 245.55 432.033 242.2 427.133 239.8C422.333 237.3 417.483 236.05 412.583 236.05C406.683 236.05 401.283 237.5 396.383 240.4C391.483 243.3 387.633 247.25 384.833 252.25C382.033 257.25 380.633 262.8 380.633 268.9C380.633 275 382.033 280.6 384.833 285.7C387.633 290.7 391.483 294.7 396.383 297.7C401.283 300.6 406.683 302.05 412.583 302.05C417.283 302.05 422.033 300.95 426.833 298.75C431.733 296.45 436.083 293.4 439.883 289.6L453.833 304.75C448.233 310.55 441.633 315.15 434.033 318.55C426.533 321.95 418.983 323.65 411.383 323.65C401.083 323.65 391.733 321.3 383.333 316.6C374.933 311.8 368.333 305.25 363.533 296.95C358.733 288.65 356.333 279.4 356.333 269.2C356.333 259.1 358.783 249.95 363.683 241.75C368.583 233.55 375.283 227.1 383.783 222.4C392.383 217.7 401.883 215.35 412.283 215.35C419.883 215.35 427.383 216.95 434.783 220.15C442.183 223.25 448.483 227.5 453.683 232.9L439.883 249.85Z" fill="white"/>
<path d="M512.984 217H536.684V260.8H584.234V217H607.934V322H584.234V280.6H536.684V322H512.984V217Z" fill="white"/>
<path d="M800.756 217C811.456 217 821.006 219.25 829.406 223.75C837.806 228.15 844.306 234.35 848.906 242.35C853.606 250.25 855.956 259.3 855.956 269.5C855.956 279.7 853.556 288.8 848.756 296.8C844.056 304.7 837.456 310.9 828.956 315.4C820.456 319.8 810.756 322 799.856 322H756.206V217H800.756ZM801.356 302.05C807.156 302.05 812.356 300.7 816.956 298C821.656 295.2 825.306 291.35 827.906 286.45C830.506 281.55 831.806 275.95 831.806 269.65C831.806 263.35 830.406 257.7 827.606 252.7C824.906 247.7 821.156 243.85 816.356 241.15C811.656 238.35 806.306 236.95 800.306 236.95H779.906V302.05H801.356Z" fill="white"/>
<path d="M916.489 217H996.439V236.65H940.189V259.45H990.739V279.1H940.189V302.35H998.089V322H916.489V217Z" fill="white"/>
<path d="M1050.13 217H1075.63L1104.28 296.2L1133.08 217H1157.53L1115.83 322H1091.38L1050.13 217Z" fill="white"/>
<path d="M1351.66 288.4C1351.66 299.3 1348.51 307.8 1342.21 313.9C1336.01 320 1327.41 323.05 1316.41 323.05C1302.81 323.05 1291.36 317.6 1282.06 306.7L1293.01 289.9C1296.61 293.7 1300.36 296.6 1304.26 298.6C1308.26 300.6 1311.91 301.6 1315.21 301.6C1319.21 301.6 1322.31 300.4 1324.51 298C1326.71 295.6 1327.81 292.2 1327.81 287.8V237.1H1291.66V217H1351.66V288.4Z" fill="white"/>
<path d="M1487.03 246.25C1481.63 242.95 1475.88 240.35 1469.78 238.45C1463.78 236.45 1458.63 235.45 1454.33 235.45C1450.23 235.45 1446.98 236.2 1444.58 237.7C1442.18 239.2 1440.98 241.4 1440.98 244.3C1440.98 248 1442.68 250.85 1446.08 252.85C1449.58 254.75 1454.93 256.75 1462.13 258.85C1469.33 260.95 1475.23 263.05 1479.83 265.15C1484.53 267.25 1488.53 270.4 1491.83 274.6C1495.13 278.8 1496.78 284.35 1496.78 291.25C1496.78 297.95 1494.98 303.75 1491.38 308.65C1487.88 313.45 1483.03 317.1 1476.83 319.6C1470.63 322.1 1463.58 323.35 1455.68 323.35C1447.18 323.35 1438.83 321.85 1430.63 318.85C1422.43 315.85 1415.33 311.75 1409.33 306.55L1418.78 287.2C1424.08 292 1430.18 295.85 1437.08 298.75C1443.98 301.65 1450.28 303.1 1455.98 303.1C1460.88 303.1 1464.68 302.2 1467.38 300.4C1470.18 298.6 1471.58 296 1471.58 292.6C1471.58 289.9 1470.63 287.7 1468.73 286C1466.93 284.2 1464.58 282.75 1461.68 281.65C1458.88 280.55 1454.98 279.3 1449.98 277.9C1442.78 275.9 1436.88 273.9 1432.28 271.9C1427.78 269.9 1423.88 266.85 1420.58 262.75C1417.28 258.65 1415.63 253.2 1415.63 246.4C1415.63 240.1 1417.33 234.6 1420.73 229.9C1424.13 225.1 1428.88 221.45 1434.98 218.95C1441.08 216.35 1448.18 215.05 1456.28 215.05C1463.48 215.05 1470.58 216.1 1477.58 218.2C1484.58 220.3 1490.78 223.1 1496.18 226.6L1487.03 246.25Z" fill="white"/>
</g>
<g opacity="0.02">
<path d="M123.1 651C133.8 651 143.35 653.25 151.75 657.75C160.15 662.15 166.65 668.35 171.25 676.35C175.95 684.25 178.3 693.3 178.3 703.5C178.3 713.7 175.9 722.8 171.1 730.8C166.4 738.7 159.8 744.9 151.3 749.4C142.8 753.8 133.1 756 122.2 756H78.55V651H123.1ZM123.7 736.05C129.5 736.05 134.7 734.7 139.3 732C144 729.2 147.65 725.35 150.25 720.45C152.85 715.55 154.15 709.95 154.15 703.65C154.15 697.35 152.75 691.7 149.95 686.7C147.25 681.7 143.5 677.85 138.7 675.15C134 672.35 128.65 670.95 122.65 670.95H102.25V736.05H123.7Z" fill="white"/>
<path d="M238.833 651H318.783V670.65H262.533V693.45H313.083V713.1H262.533V736.35H320.433V756H238.833V651Z" fill="white"/>
<path d="M372.479 651H397.979L426.629 730.2L455.429 651H479.879L438.179 756H413.729L372.479 651Z" fill="white"/>
<path d="M536.402 651H616.352V670.65H560.102V693.45H610.652V713.1H560.102V736.35H618.002V756H536.402V651Z" fill="white"/>
<path d="M681.597 651H705.297V735.3H750.297V756H681.597V651Z" fill="white"/>
<path d="M858.261 649.35C868.761 649.35 878.311 651.7 886.911 656.4C895.511 661.1 902.261 667.6 907.161 675.9C912.161 684.1 914.661 693.25 914.661 703.35C914.661 713.45 912.161 722.65 907.161 730.95C902.261 739.25 895.511 745.8 886.911 750.6C878.311 755.3 868.761 757.65 858.261 757.65C847.761 757.65 838.211 755.3 829.611 750.6C821.011 745.8 814.211 739.3 809.211 731.1C804.311 722.8 801.861 713.55 801.861 703.35C801.861 693.25 804.311 684.1 809.211 675.9C814.211 667.6 820.961 661.1 829.461 656.4C838.061 651.7 847.661 649.35 858.261 649.35ZM858.561 670.05C852.761 670.05 847.361 671.55 842.361 674.55C837.361 677.45 833.411 681.45 830.511 686.55C827.611 691.65 826.161 697.25 826.161 703.35C826.161 709.55 827.611 715.2 830.511 720.3C833.511 725.4 837.461 729.45 842.361 732.45C847.361 735.45 852.761 736.95 858.561 736.95C864.361 736.95 869.661 735.5 874.461 732.6C879.361 729.6 883.211 725.55 886.011 720.45C888.911 715.25 890.361 709.55 890.361 703.35C890.361 697.25 888.911 691.65 886.011 686.55C883.211 681.45 879.361 677.45 874.461 674.55C869.661 671.55 864.361 670.05 858.561 670.05Z" fill="white"/>
<path d="M1019.76 651C1033.16 651 1043.51 654.2 1050.81 660.6C1058.11 666.9 1061.76 675.85 1061.76 687.45C1061.76 699.65 1058.06 709.15 1050.66 715.95C1043.36 722.65 1033.06 726 1019.76 726H998.91V756H975.21V651H1019.76ZM1018.56 706.2C1025.26 706.2 1030.36 704.7 1033.86 701.7C1037.46 698.6 1039.26 694.1 1039.26 688.2C1039.26 682.4 1037.46 678.05 1033.86 675.15C1030.36 672.15 1025.26 670.65 1018.56 670.65H998.91V706.2H1018.56Z" fill="white"/>
<path d="M1121.87 651H1201.82V670.65H1145.57V693.45H1196.12V713.1H1145.57V736.35H1203.47V756H1121.87V651Z" fill="white"/>
<path d="M1331.57 756L1314.92 726H1312.67H1290.77V756H1267.07V651H1312.67C1326.37 651 1336.97 654.2 1344.47 660.6C1351.97 666.9 1355.72 675.85 1355.72 687.45C1355.72 695.55 1354.02 702.5 1350.62 708.3C1347.32 714 1342.47 718.35 1336.07 721.35L1358.42 756H1331.57ZM1290.77 706.2H1312.67C1319.27 706.2 1324.32 704.7 1327.82 701.7C1331.42 698.6 1333.22 694.1 1333.22 688.2C1333.22 682.4 1331.42 678.05 1327.82 675.15C1324.32 672.15 1319.27 670.65 1312.67 670.65H1290.77V706.2Z" fill="white"/>
</g>
</g>
</svg>
